<svg xmlns="http://www.w3.org/2000/svg" xmlns:xlink="http://www.w3.org/1999/xlink" contentStyleType="text/css" data-diagram-type="DESCRIPTION" height="372px" preserveAspectRatio="none" style="width:851px;height:372px;background:#FFFFFF;" version="1.1" viewBox="0 0 851 372" width="851px" zoomAndPan="magnify"><defs/><g><!--cluster Frontend (React App)--><g class="cluster" data-entity="Frontend (React App)" data-source-line="14" data-uid="ent0002" id="cluster_Frontend (React App)"><rect fill="#ADD8E6" height="87.29" rx="2.5" ry="2.5" style="stroke:#000000;stroke-width:1;" width="740" x="58" y="143.3"/><text fill="#000000" font-family="sans-serif" font-size="14" font-weight="bold" lengthAdjust="spacing" textLength="170.3652" x="342.8174" y="158.2951">Frontend (React App)</text></g><!--cluster Mock Data Layer--><g class="cluster" data-entity="Mock Data Layer" data-source-line="22" data-uid="ent0008" id="cluster_Mock Data Layer"><rect fill="#ADD8E6" height="87.3" rx="2.5" ry="2.5" style="stroke:#000000;stroke-width:1;" width="371" x="7" y="279.59"/><text fill="#000000" font-family="sans-serif" font-size="14" font-weight="bold" lengthAdjust="spacing" textLength="132.0088" x="126.4956" y="294.5851">Mock Data Layer</text></g><!--cluster Browser--><g class="cluster" data-entity="Browser" data-source-line="27" data-uid="ent0011" id="cluster_Browser"><rect fill="#ADD8E6" height="87.3" rx="2.5" ry="2.5" style="stroke:#000000;stroke-width:1;" width="152" x="348" y="7"/><text fill="#000000" font-family="sans-serif" font-size="14" font-weight="bold" lengthAdjust="spacing" textLength="64.8594" x="391.5703" y="21.9951">Browser</text></g><!--entity QuerySelector--><g class="entity" data-entity="QuerySelector" data-source-line="15" data-uid="ent0003" id="entity_QuerySelector"><rect fill="#90EE90" height="36.2969" rx="2.5" ry="2.5" style="stroke:#000000;stroke-width:0.5;" width="124.5078" x="73.75" y="178.3"/><text fill="#000000" font-family="sans-serif" font-size="14" lengthAdjust="spacing" textLength="104.5078" x="83.75" y="201.2951">Query Selector</text></g><!--entity QueryEditor--><g class="entity" data-entity="QueryEditor" data-source-line="16" data-uid="ent0004" id="entity_QueryEditor"><rect fill="#90EE90" height="36.2969" rx="2.5" ry="2.5" style="stroke:#000000;stroke-width:0.5;" width="108.4297" x="232.79" y="178.3"/><text fill="#000000" font-family="sans-serif" font-size="14" lengthAdjust="spacing" textLength="88.4297" x="242.79" y="201.2951">Query Editor</text></g><!--entity DataTable--><g class="entity" data-entity="DataTable" data-source-line="17" data-uid="ent0005" id="entity_DataTable"><rect fill="#90EE90" height="36.2969" rx="2.5" ry="2.5" style="stroke:#000000;stroke-width:0.5;" width="96.3984" x="375.8" y="178.3"/><text fill="#000000" font-family="sans-serif" font-size="14" lengthAdjust="spacing" textLength="76.3984" x="385.8" y="201.2951">Data Table</text></g><!--entity HistoryViewer--><g class="entity" data-entity="HistoryViewer" data-source-line="18" data-uid="ent0006" id="entity_HistoryViewer"><rect fill="#90EE90" height="36.2969" rx="2.5" ry="2.5" style="stroke:#000000;stroke-width:0.5;" width="122.1563" x="506.92" y="178.3"/><text fill="#000000" font-family="sans-serif" font-size="14" lengthAdjust="spacing" textLength="102.1563" x="516.92" y="201.2951">History Viewer</text></g><!--entity ExportCSV--><g class="entity" data-entity="ExportCSV" data-source-line="19" data-uid="ent0007" id="entity_ExportCSV"><rect fill="#90EE90" height="36.2969" rx="2.5" ry="2.5" style="stroke:#000000;stroke-width:0.5;" width="117.0225" x="664.49" y="178.3"/><text fill="#000000" font-family="sans-serif" font-size="14" lengthAdjust="spacing" textLength="97.0225" x="674.49" y="201.2951">Export to CSV</text></g><!--entity PredefinedQueries--><g class="entity" data-entity="PredefinedQueries" data-source-line="23" data-uid="ent0009" id="entity_PredefinedQueries"><rect fill="#90EE90" height="36.2969" rx="2.5" ry="2.5" style="stroke:#000000;stroke-width:0.5;" width="154.0117" x="22.99" y="314.59"/><text fill="#000000" font-family="sans-serif" font-size="14" lengthAdjust="spacing" textLength="134.0117" x="32.99" y="337.5851">Predefined Queries</text></g><!--entity MockDataResults--><g class="entity" data-entity="MockDataResults" data-source-line="24" data-uid="ent0010" id="entity_MockDataResults"><rect fill="#90EE90" height="36.2969" rx="2.5" ry="2.5" style="stroke:#000000;stroke-width:0.5;" width="149.958" x="212.02" y="314.59"/><text fill="#000000" font-family="sans-serif" font-size="14" lengthAdjust="spacing" textLength="129.958" x="222.02" y="337.5851">Mock Data Results</text></g><!--entity UserInterface--><g class="entity" data-entity="UserInterface" data-source-line="28" data-uid="ent0012" id="entity_UserInterface"><rect fill="#90EE90" height="36.2969" rx="2.5" ry="2.5" style="stroke:#000000;stroke-width:0.5;" width="119.0391" x="364.48" y="42"/><text fill="#000000" font-family="sans-serif" font-size="14" lengthAdjust="spacing" textLength="99.0391" x="374.48" y="64.9951">User Interface</text></g><!--link UserInterface to QuerySelector--><g class="link" data-entity-1="UserInterface" data-entity-2="QuerySelector" data-source-line="31" data-uid="lnk13" id="link_UserInterface_QuerySelector"><path d="M364.17,62.9 C289.41,66.48 167.77,77.34 139,110.3 C122.85,128.79 125.0173,153.2691 129.4873,172.2891" fill="none" id="UserInterface-to-QuerySelector" style="stroke:#181818;stroke-width:1;"/><polygon fill="#181818" points="130.86,178.13,132.6949,168.4536,129.7161,173.2626,124.907,170.2838,130.86,178.13" style="stroke:#181818;stroke-width:1;"/><text fill="#000000" font-family="sans-serif" font-size="13" lengthAdjust="spacing" textLength="156.4189" x="140" y="123.3669">Select predefined query</text></g><!--link UserInterface to QueryEditor--><g class="link" data-entity-1="UserInterface" data-entity-2="QueryEditor" data-source-line="32" data-uid="lnk14" id="link_UserInterface_QueryEditor"><path d="M364.25,77.73 C346.4,85.2 328.12,95.71 315,110.3 C297.83,129.39 291.9722,153.2952 289.4022,172.1052" fill="none" id="UserInterface-to-QueryEditor" style="stroke:#181818;stroke-width:1;"/><polygon fill="#181818" points="288.59,178.05,293.7715,169.6743,289.2669,173.096,285.8452,168.5914,288.59,178.05" style="stroke:#181818;stroke-width:1;"/><text fill="#000000" font-family="sans-serif" font-size="13" lengthAdjust="spacing" textLength="96.6938" x="316" y="123.3669">Edit SQL query</text></g><!--link QuerySelector to PredefinedQueries--><g class="link" data-entity-1="QuerySelector" data-entity-2="PredefinedQueries" data-source-line="33" data-uid="lnk15" id="link_QuerySelector_PredefinedQueries"><path d="M125.94,214.64 C121,223.83 115.39,235.52 112,246.59 C105.05,269.29 102.5214,290.6548 101.2914,308.1248" fill="none" id="QuerySelector-to-PredefinedQueries" style="stroke:#181818;stroke-width:1;"/><polygon fill="#181818" points="100.87,314.11,105.4922,305.4132,101.2212,309.1223,97.512,304.8513,100.87,314.11" style="stroke:#181818;stroke-width:1;"/><text fill="#000000" font-family="sans-serif" font-size="13" lengthAdjust="spacing" textLength="162.9634" x="113" y="259.6569">Fetch predefined queries</text></g><!--link QueryEditor to MockDataResults--><g class="link" data-entity-1="QueryEditor" data-entity-2="MockDataResults" data-source-line="34" data-uid="lnk16" id="link_QueryEditor_MockDataResults"><path d="M285.69,214.72 C285.04,224.14 284.32,236 284,246.59 C283.29,269.95 284.2175,290.9222 285.3175,308.1422" fill="none" id="QueryEditor-to-MockDataResults" style="stroke:#181818;stroke-width:1;"/><polygon fill="#181818" points="285.7,314.13,289.1181,304.8933,285.3813,309.1402,281.1344,305.4033,285.7,314.13" style="stroke:#181818;stroke-width:1;"/><text fill="#000000" font-family="sans-serif" font-size="13" lengthAdjust="spacing" textLength="116.7397" x="285" y="259.6569">Run query (mock)</text></g><!--link MockDataResults to DataTable--><g class="link" data-entity-1="MockDataResults" data-entity-2="DataTable" data-source-line="35" data-uid="lnk17" id="link_MockDataResults_DataTable"><path d="M336.08,314.16 C360.37,303.13 388.23,286.57 406,263.59 C416.92,249.47 420.5197,235.149 422.2097,220.769" fill="none" id="MockDataResults-to-DataTable" style="stroke:#181818;stroke-width:1;"/><polygon fill="#181818" points="422.91,214.81,417.8869,223.2816,422.3264,219.7758,425.8322,224.2154,422.91,214.81" style="stroke:#181818;stroke-width:1;"/><text fill="#000000" font-family="sans-serif" font-size="13" lengthAdjust="spacing" textLength="131.3457" x="417" y="259.6569">Return mock results</text></g><!--link UserInterface to DataTable--><g class="link" data-entity-1="UserInterface" data-entity-2="DataTable" data-source-line="36" data-uid="lnk18" id="link_UserInterface_DataTable"><path d="M422.69,78.42 C422.04,87.84 421.32,99.7 421,110.3 C420.29,133.66 421.2173,154.6322 422.3173,171.8422" fill="none" id="UserInterface-to-DataTable" style="stroke:#181818;stroke-width:1;"/><polygon fill="#181818" points="422.7,177.83,426.1178,168.5932,422.3811,172.8402,418.1341,169.1035,422.7,177.83" style="stroke:#181818;stroke-width:1;"/><text fill="#000000" font-family="sans-serif" font-size="13" lengthAdjust="spacing" textLength="120.7642" x="422" y="123.3669">View query results</text></g><!--link UserInterface to HistoryViewer--><g class="link" data-entity-1="UserInterface" data-entity-2="HistoryViewer" data-source-line="37" data-uid="lnk19" id="link_UserInterface_HistoryViewer"><path d="M483.76,72.75 C506.48,80 530.77,91.65 547,110.3 C563.49,129.25 567.2179,153.1445 567.9479,172.0045" fill="none" id="UserInterface-to-HistoryViewer" style="stroke:#181818;stroke-width:1;"/><polygon fill="#181818" points="568.18,178,571.8289,168.852,567.9866,173.0037,563.8349,169.1614,568.18,178" style="stroke:#181818;stroke-width:1;"/><text fill="#000000" font-family="sans-serif" font-size="13" lengthAdjust="spacing" textLength="121.6401" x="559" y="123.3669">View query history</text></g><!--link UserInterface to ExportCSV--><g class="link" data-entity-1="UserInterface" data-entity-2="ExportCSV" data-source-line="38" data-uid="lnk20" id="link_UserInterface_ExportCSV"><path d="M483.82,65.57 C552.11,71.75 658.34,85.14 689,110.3 C709.55,127.16 716.7864,152.3395 720.0064,171.9195" fill="none" id="UserInterface-to-ExportCSV" style="stroke:#181818;stroke-width:1;"/><polygon fill="#181818" points="720.98,177.84,723.4665,168.3102,720.1686,172.9063,715.5726,169.6084,720.98,177.84" style="stroke:#181818;stroke-width:1;"/><text fill="#000000" font-family="sans-serif" font-size="13" lengthAdjust="spacing" textLength="138.0615" x="705" y="123.3669">Export results to CSV</text></g><!--SRC=[VLFBJiCm4BpdAxRXqXugSKB00QbDmqCgVQI5ApB9qaPDxU0uAXNYt_7QQKFSb9pisPdPXpUT13zIZX25mN8mUHY7Ry5qF8tWOZ0QNOTNNgUA1zFdsNGIJfQ7-Crb6DvSUbwnINdE9Dj2BBQvuCZLGkqp18cnOdoLuH_A4ODl3_GtPF5c9KN9aq1aGhfLM8wG2KeRVy-qmFjfIth6qQdxhADNb-RVIy4LyWIw4R9OmI3FUtxbN-VpvoNAFImmqqeXVM056EY0jFF396smxTtbZfXYi6Jl6HecNStDvJscXLRluJN57LhN2hA8om-_SY4LA071ujNGBQ9lpX2UHRmnUM7CzcHzqlzCebsEn7IIOc4CQxX2NLtj765HPihA22MmmfngXbBiYjOgNZGCJ_gzv0UBxRG8EY9ar02WtxzhFXJSWc_FaDSzVHB5FwUrpqPAEi5YFZu8cjOaE9a8oUvHnMit7ytG- -jFScSo98vARjD1TwkZFTzpIIGyResHe2eb1wBhtz3ElQMvXePsgChpZwInS8viRMDjikFYcI7QlQoo7FRp5m00]--></g></svg>